<?xml version="1.0" encoding="utf-8"?>
<!-- Generator: Adobe Illustrator 21.0.0, SVG Export Plug-In . SVG Version: 6.00 Build 0)  -->
<svg version="1.1" id="Ebene_1" xmlns="http://www.w3.org/2000/svg" xmlns:xlink="http://www.w3.org/1999/xlink" x="0px" y="0px"
	 viewBox="0 0 841.9 595.3" style="enable-background:new 0 0 841.9 595.3;" xml:space="preserve">
<style type="text/css">
	.st0{fill:url(#SVGID_1_);}
	.st1{fill:url(#SVGID_2_);}
	.st2{fill:url(#SVGID_3_);}
	.st3{fill:url(#SVGID_4_);}
	.st4{fill:url(#SVGID_5_);}
	.st5{fill:url(#SVGID_6_);}
	.st6{fill:url(#SVGID_7_);}
	.st7{fill:url(#SVGID_8_);}
	.st8{fill:url(#SVGID_9_);}
	.st9{fill:url(#SVGID_10_);}
	.st10{fill:url(#SVGID_11_);}
	.st11{fill:url(#SVGID_12_);}
	.st12{fill:url(#SVGID_13_);}
	.st13{fill:url(#SVGID_14_);}
	.st14{fill:url(#SVGID_15_);}
	.st15{fill:url(#SVGID_16_);}
	.st16{fill:url(#SVGID_17_);}
	.st17{fill:url(#SVGID_18_);}
</style>
<g>
	<g>
		<linearGradient id="SVGID_1_" gradientUnits="userSpaceOnUse" x1="520.6669" y1="287.9316" x2="556.2022" y2="287.9316">
			<stop  offset="0" style="stop-color:#E94E1B"/>
			<stop  offset="1" style="stop-color:#662483"/>
		</linearGradient>
		<path class="st0" d="M538.4,358.4c-9.8,0-17.8-8-17.8-17.8V235.3c0-9.8,8-17.8,17.8-17.8c9.8,0,17.8,8,17.8,17.8v105.3
			C556.2,350.4,548.2,358.4,538.4,358.4z M538.4,228.8c-3.6,0-6.4,2.9-6.4,6.4v105.3c0,3.6,2.9,6.4,6.4,6.4s6.4-2.9,6.4-6.4V235.3
			C544.9,231.7,542,228.8,538.4,228.8z"/>
	</g>
	<g>
		<linearGradient id="SVGID_2_" gradientUnits="userSpaceOnUse" x1="520.6669" y1="235.2673" x2="626.4249" y2="235.2673">
			<stop  offset="0" style="stop-color:#E94E1B"/>
			<stop  offset="1" style="stop-color:#662483"/>
		</linearGradient>
		<path class="st1" d="M608.7,253h-70.2c-9.8,0-17.8-8-17.8-17.8s8-17.8,17.8-17.8h70.2c9.8,0,17.8,8,17.8,17.8S618.5,253,608.7,253
			z M538.4,228.8c-3.6,0-6.4,2.9-6.4,6.4s2.9,6.4,6.4,6.4h70.2c3.6,0,6.4-2.9,6.4-6.4s-2.9-6.4-6.4-6.4H538.4z"/>
	</g>
	<g>
		<linearGradient id="SVGID_3_" gradientUnits="userSpaceOnUse" x1="520.6669" y1="340.5967" x2="626.4249" y2="340.5967">
			<stop  offset="0" style="stop-color:#E94E1B"/>
			<stop  offset="1" style="stop-color:#662483"/>
		</linearGradient>
		<path class="st2" d="M608.7,358.4h-70.2c-9.8,0-17.8-8-17.8-17.8c0-9.8,8-17.8,17.8-17.8h70.2c9.8,0,17.8,8,17.8,17.8
			C626.4,350.4,618.5,358.4,608.7,358.4z M538.4,334.2c-3.6,0-6.4,2.9-6.4,6.4s2.9,6.4,6.4,6.4h70.2c3.6,0,6.4-2.9,6.4-6.4
			s-2.9-6.4-6.4-6.4H538.4z"/>
	</g>
	<g>
		<linearGradient id="SVGID_4_" gradientUnits="userSpaceOnUse" x1="520.6669" y1="287.9316" x2="616.1329" y2="287.9316">
			<stop  offset="0" style="stop-color:#E94E1B"/>
			<stop  offset="1" style="stop-color:#662483"/>
		</linearGradient>
		<path class="st3" d="M598.4,305.7h-59.9c-9.8,0-17.8-8-17.8-17.8s8-17.8,17.8-17.8h59.9c9.8,0,17.8,8,17.8,17.8
			S608.2,305.7,598.4,305.7z M538.4,281.5c-3.6,0-6.4,2.9-6.4,6.4s2.9,6.4,6.4,6.4h59.9c3.6,0,6.4-2.9,6.4-6.4s-2.9-6.4-6.4-6.4
			H538.4z"/>
	</g>
</g>
<g>
	<g>
		<linearGradient id="SVGID_5_" gradientUnits="userSpaceOnUse" x1="377.5048" y1="287.9316" x2="413.0438" y2="287.9316">
			<stop  offset="0" style="stop-color:#E94E1B"/>
			<stop  offset="1" style="stop-color:#662483"/>
		</linearGradient>
		<path class="st4" d="M395.3,358.4c-9.8,0-17.8-8-17.8-17.8V235.3c0-9.8,8-17.8,17.8-17.8s17.8,8,17.8,17.8v105.3
			C413,350.4,405.1,358.4,395.3,358.4z M395.3,228.8c-3.6,0-6.4,2.9-6.4,6.4v105.3c0,3.6,2.9,6.4,6.4,6.4s6.4-2.9,6.4-6.4V235.3
			C401.7,231.7,398.8,228.8,395.3,228.8z"/>
	</g>
	<g>
		<linearGradient id="SVGID_6_" gradientUnits="userSpaceOnUse" x1="377.5048" y1="235.2673" x2="460.7473" y2="235.2673">
			<stop  offset="0" style="stop-color:#E94E1B"/>
			<stop  offset="1" style="stop-color:#662483"/>
		</linearGradient>
		<path class="st5" d="M443,253h-47.7c-9.8,0-17.8-8-17.8-17.8s8-17.8,17.8-17.8H443c9.8,0,17.8,8,17.8,17.8S452.8,253,443,253z
			 M395.3,228.8c-3.6,0-6.4,2.9-6.4,6.4s2.9,6.4,6.4,6.4H443c3.6,0,6.4-2.9,6.4-6.4s-2.9-6.4-6.4-6.4H395.3z"/>
	</g>
	<g>
		<linearGradient id="SVGID_7_" gradientUnits="userSpaceOnUse" x1="377.5048" y1="340.5967" x2="460.7252" y2="340.5967">
			<stop  offset="0" style="stop-color:#E94E1B"/>
			<stop  offset="1" style="stop-color:#662483"/>
		</linearGradient>
		<path class="st6" d="M443,358.4h-47.7c-9.8,0-17.8-8-17.8-17.8c0-9.8,8-17.8,17.8-17.8H443c9.8,0,17.8,8,17.8,17.8
			C460.7,350.4,452.8,358.4,443,358.4z M395.3,334.2c-3.6,0-6.4,2.9-6.4,6.4s2.9,6.4,6.4,6.4H443c3.6,0,6.4-2.9,6.4-6.4
			s-2.9-6.4-6.4-6.4H395.3z"/>
	</g>
	<g>
		<g>
			<linearGradient id="SVGID_8_" gradientUnits="userSpaceOnUse" x1="424.7586" y1="261.599" x2="509.3281" y2="261.599">
				<stop  offset="0" style="stop-color:#E94E1B"/>
				<stop  offset="1" style="stop-color:#662483"/>
			</linearGradient>
			<path class="st7" d="M491.6,305.7c-9.8,0-17.8-8-17.8-17.8c0-20.2-13.1-34.9-31.3-34.9c-9.8,0-17.8-8-17.8-17.8s8-17.8,17.8-17.8
				c38.1,0,66.8,30.3,66.8,70.4C509.3,297.7,501.4,305.7,491.6,305.7z M442.5,228.8c-3.6,0-6.4,2.9-6.4,6.4s2.9,6.4,6.4,6.4
				c24.7,0,42.6,19.4,42.6,46.2c0,3.6,2.9,6.4,6.4,6.4s6.4-2.9,6.4-6.4C498,254.2,474.2,228.8,442.5,228.8z"/>
		</g>
		<g>
			<linearGradient id="SVGID_9_" gradientUnits="userSpaceOnUse" x1="424.7586" y1="314.2642" x2="509.3281" y2="314.2642">
				<stop  offset="0" style="stop-color:#E94E1B"/>
				<stop  offset="1" style="stop-color:#662483"/>
			</linearGradient>
			<path class="st8" d="M442.5,358.4c-9.8,0-17.8-8-17.8-17.8c0-9.8,8-17.8,17.8-17.8c18.1,0,31.3-14.7,31.3-34.9
				c0-9.8,8-17.8,17.8-17.8c9.8,0,17.8,8,17.8,17.8C509.3,328.1,480.6,358.4,442.5,358.4z M491.6,281.5c-3.6,0-6.4,2.9-6.4,6.4
				c0,26.8-17.9,46.2-42.6,46.2c-3.6,0-6.4,2.9-6.4,6.4s2.9,6.4,6.4,6.4c31.6,0,55.5-25.4,55.5-59.1
				C498,284.4,495.1,281.5,491.6,281.5z"/>
		</g>
	</g>
</g>
<g>
	<g>
		<linearGradient id="SVGID_10_" gradientUnits="userSpaceOnUse" x1="214.6914" y1="259.6886" x2="306.7145" y2="259.6886">
			<stop  offset="0" style="stop-color:#E94E1B"/>
			<stop  offset="1" style="stop-color:#662483"/>
		</linearGradient>
		<path class="st9" d="M232.5,305.7c-9.8,0-17.8-8-17.8-17.8c0-40.9,33.3-74.3,74.3-74.3c9.8,0,17.8,8,17.8,17.8
			c0,9.8-8,17.8-17.8,17.8c-21.3,0-38.7,17.4-38.7,38.7C250.2,297.7,242.3,305.7,232.5,305.7z M288.9,225
			c-34.7,0-62.9,28.2-62.9,62.9c0,3.6,2.9,6.4,6.4,6.4s6.4-2.9,6.4-6.4c0-27.6,22.4-50,50-50c3.6,0,6.4-2.9,6.4-6.4
			S292.5,225,288.9,225z"/>
	</g>
	<g>
		<linearGradient id="SVGID_11_" gradientUnits="userSpaceOnUse" x1="214.6914" y1="316.1755" x2="306.7145" y2="316.1755">
			<stop  offset="0" style="stop-color:#E94E1B"/>
			<stop  offset="1" style="stop-color:#662483"/>
		</linearGradient>
		<path class="st10" d="M288.9,362.2c-40.9,0-74.3-33.3-74.3-74.3c0-9.8,8-17.8,17.8-17.8s17.8,8,17.8,17.8
			c0,21.3,17.4,38.7,38.7,38.7c9.8,0,17.8,8,17.8,17.8S298.7,362.2,288.9,362.2z M232.5,281.5c-3.6,0-6.4,2.9-6.4,6.4
			c0,34.7,28.2,62.9,62.9,62.9c3.6,0,6.4-2.9,6.4-6.4s-2.9-6.4-6.4-6.4c-27.6,0-50-22.4-50-50C238.9,284.4,236,281.5,232.5,281.5z"
			/>
	</g>
	<g>
		<linearGradient id="SVGID_12_" gradientUnits="userSpaceOnUse" x1="271.1774" y1="316.1755" x2="363.2023" y2="316.1755">
			<stop  offset="0" style="stop-color:#E94E1B"/>
			<stop  offset="1" style="stop-color:#662483"/>
		</linearGradient>
		<path class="st11" d="M288.9,362.2c-9.8,0-17.8-8-17.8-17.8s8-17.8,17.8-17.8c21.3,0,38.7-17.4,38.7-38.7c0-9.8,8-17.8,17.8-17.8
			c9.8,0,17.8,8,17.8,17.8C363.2,328.9,329.9,362.2,288.9,362.2z M345.4,281.5c-3.6,0-6.4,2.9-6.4,6.4c0,27.6-22.4,50-50,50
			c-3.6,0-6.4,2.9-6.4,6.4s2.9,6.4,6.4,6.4c34.7,0,62.9-28.2,62.9-62.9C351.9,284.4,349,281.5,345.4,281.5z"/>
	</g>
	<g>
		<linearGradient id="SVGID_13_" gradientUnits="userSpaceOnUse" x1="271.1774" y1="259.6886" x2="363.2023" y2="259.6886">
			<stop  offset="0" style="stop-color:#E94E1B"/>
			<stop  offset="1" style="stop-color:#662483"/>
		</linearGradient>
		<path class="st12" d="M345.4,305.7c-9.8,0-17.8-8-17.8-17.8c0-21.3-17.4-38.7-38.7-38.7c-9.8,0-17.8-8-17.8-17.8
			c0-9.8,8-17.8,17.8-17.8c40.9,0,74.3,33.3,74.3,74.3C363.2,297.7,355.2,305.7,345.4,305.7z M288.9,225c-3.6,0-6.4,2.9-6.4,6.4
			s2.9,6.4,6.4,6.4c27.6,0,50,22.4,50,50c0,3.6,2.9,6.4,6.4,6.4s6.4-2.9,6.4-6.4C351.9,253.2,323.6,225,288.9,225z"/>
	</g>
</g>
<g>
	<g>
		<linearGradient id="SVGID_14_" gradientUnits="userSpaceOnUse" x1="636.6334" y1="287.9361" x2="758.5397" y2="287.9361">
			<stop  offset="0" style="stop-color:#E94E1B"/>
			<stop  offset="1" style="stop-color:#662483"/>
		</linearGradient>
		<path class="st13" d="M740.8,358.4c-5.3,0-10.4-2.4-13.7-6.5l-86.4-105.3c-6.2-7.6-5.1-18.8,2.5-25c7.6-6.2,18.8-5.1,25,2.5
			l86.4,105.3c6.2,7.6,5.1,18.8-2.5,25C748.9,356.9,744.9,358.4,740.8,358.4z M654.4,228.8c-1.4,0-2.9,0.5-4.1,1.5
			c-2.7,2.3-3.2,6.3-0.9,9.1l86.4,105.3c1.2,1.5,3,2.4,5,2.4c1,0,2.6-0.3,4.1-1.5c2.7-2.2,3.1-6.3,0.9-9.1l-86.4-105.3
			C658.1,229.6,656.3,228.8,654.4,228.8z"/>
	</g>
	<g>
		<linearGradient id="SVGID_15_" gradientUnits="userSpaceOnUse" x1="636.6334" y1="287.9363" x2="758.5502" y2="287.9363">
			<stop  offset="0" style="stop-color:#E94E1B"/>
			<stop  offset="1" style="stop-color:#662483"/>
		</linearGradient>
		<path class="st14" d="M654.4,358.4c-4.1,0-8.1-1.4-11.3-4c-7.6-6.2-8.7-17.4-2.5-25L727,224c6.2-7.6,17.4-8.7,25-2.5
			c3.7,3,5.9,7.3,6.4,12c0.5,4.7-0.9,9.3-3.9,13l-86.4,105.3C664.7,356,659.7,358.4,654.4,358.4z M740.8,228.8c-1.9,0-3.7,0.8-5,2.4
			l-86.4,105.3c-2.3,2.7-1.9,6.8,0.9,9.1c1.5,1.2,3,1.5,4.1,1.5c1.9,0,3.8-0.9,5-2.4l86.4-105.3c1.1-1.3,1.6-3,1.4-4.7
			c-0.2-1.7-1-3.3-2.3-4.3C743.7,229.3,742.2,228.8,740.8,228.8z"/>
	</g>
</g>
<g>
	<g>
		<g>
			<linearGradient id="SVGID_16_" gradientUnits="userSpaceOnUse" x1="94.1388" y1="287.9316" x2="129.6759" y2="287.9316">
				<stop  offset="0" style="stop-color:#E94E1B"/>
				<stop  offset="1" style="stop-color:#662483"/>
			</linearGradient>
			<path class="st15" d="M111.9,358.4c-9.8,0-17.8-8-17.8-17.8V235.3c0-9.8,8-17.8,17.8-17.8s17.8,8,17.8,17.8v105.3
				C129.7,350.4,121.7,358.4,111.9,358.4z M111.9,228.8c-3.6,0-6.4,2.9-6.4,6.4v105.3c0,3.6,2.9,6.4,6.4,6.4c3.6,0,6.4-2.9,6.4-6.4
				V235.3C118.4,231.7,115.5,228.8,111.9,228.8z"/>
		</g>
	</g>
	<g>
		<linearGradient id="SVGID_17_" gradientUnits="userSpaceOnUse" x1="94.1377" y1="273.795" x2="203.9766" y2="273.795">
			<stop  offset="0" style="stop-color:#E94E1B"/>
			<stop  offset="1" style="stop-color:#662483"/>
		</linearGradient>
		<path class="st16" d="M111.9,330.1c-4.6,0-9-1.8-12.3-5c-3.4-3.3-5.3-7.7-5.4-12.5c-0.1-4.7,1.7-9.2,5-12.7l74.3-77.1
			c3.3-3.4,7.7-5.3,12.5-5.4c4.7-0.1,9.2,1.7,12.7,5c3.4,3.3,5.3,7.7,5.4,12.5c0.1,4.7-1.7,9.2-5,12.7l-74.3,77.1
			C121.3,328.2,116.8,330.1,111.9,330.1z M186.2,228.8c0,0-0.1,0-0.1,0c-1.7,0-3.3,0.7-4.5,2l-74.3,77.1c-1.2,1.2-1.8,2.9-1.8,4.6
			s0.7,3.3,2,4.5c2.5,2.4,6.7,2.3,9.1-0.2l74.3-77.1c1.2-1.2,1.8-2.9,1.8-4.6c0-1.7-0.7-3.3-2-4.5
			C189.5,229.5,187.9,228.8,186.2,228.8z"/>
	</g>
	<g>
		<linearGradient id="SVGID_18_" gradientUnits="userSpaceOnUse" x1="125.7237" y1="310.0972" x2="211.3186" y2="310.0972">
			<stop  offset="0" style="stop-color:#E94E1B"/>
			<stop  offset="1" style="stop-color:#662483"/>
		</linearGradient>
		<path class="st17" d="M193.6,358.4c-5.3,0-10.4-2.4-13.7-6.5l-50.1-61c-3-3.7-4.4-8.3-3.9-13c0.5-4.7,2.7-9,6.4-12
			c7.6-6.2,18.8-5.1,25,2.5l50.1,61c6.2,7.6,5.1,18.8-2.5,25C201.7,356.9,197.7,358.4,193.6,358.4z M143.5,273.1
			c-1.4,0-2.9,0.5-4.1,1.5c-1.3,1.1-2.2,2.6-2.3,4.3c-0.2,1.7,0.3,3.4,1.4,4.7l50.1,61c1.2,1.5,3,2.4,5,2.4c1,0,2.6-0.3,4.1-1.5
			c2.7-2.3,3.1-6.3,0.9-9.1l-50.1-61C147.2,274,145.4,273.1,143.5,273.1z"/>
	</g>
</g>
</svg>
