<?xml version="1.0" encoding="utf-8"?>
<!-- Generator: Adobe Illustrator 21.0.0, SVG Export Plug-In . SVG Version: 6.00 Build 0)  -->
<svg version="1.1" id="Ebene_1" xmlns="http://www.w3.org/2000/svg" xmlns:xlink="http://www.w3.org/1999/xlink" x="0px" y="0px"
	 viewBox="0 0 841.9 595.3" style="enable-background:new 0 0 841.9 595.3;" xml:space="preserve">
<style type="text/css">
	.st0{fill:url(#SVGID_1_);}
	.st1{fill:url(#SVGID_2_);}
	.st2{fill:url(#SVGID_3_);}
	.st3{fill:url(#SVGID_4_);}
	.st4{fill:url(#SVGID_5_);}
	.st5{fill:url(#SVGID_6_);}
	.st6{fill:url(#SVGID_7_);}
	.st7{fill:url(#SVGID_8_);}
	.st8{fill:url(#SVGID_9_);}
	.st9{fill:url(#SVGID_10_);}
	.st10{fill:url(#SVGID_11_);}
	.st11{fill:url(#SVGID_12_);}
	.st12{fill:url(#SVGID_13_);}
	.st13{fill:url(#SVGID_14_);}
	.st14{fill:url(#SVGID_15_);}
	.st15{fill:url(#SVGID_16_);}
	.st16{fill:url(#SVGID_17_);}
	.st17{fill:url(#SVGID_18_);}
</style>
<g>
	<g>
		<linearGradient id="SVGID_1_" gradientUnits="userSpaceOnUse" x1="520.3279" y1="297.639" x2="558.4188" y2="297.639">
			<stop  offset="0" style="stop-color:#95C11F"/>
			<stop  offset="0.4989" style="stop-color:#36A9E1"/>
			<stop  offset="1" style="stop-color:#662483"/>
		</linearGradient>
		<path class="st0" d="M539.4,373.1c-10.5,0-19-8.5-19-19V241.2c0-10.5,8.5-19,19-19s19,8.5,19,19v112.9
			C558.4,364.6,549.9,373.1,539.4,373.1z M539.4,234.3c-3.8,0-6.9,3.1-6.9,6.9v112.9c0,3.8,3.1,6.9,6.9,6.9c3.8,0,6.9-3.1,6.9-6.9
			V241.2C546.3,237.4,543.2,234.3,539.4,234.3z"/>
	</g>
	<g>
		<linearGradient id="SVGID_2_" gradientUnits="userSpaceOnUse" x1="520.3279" y1="241.193" x2="633.6802" y2="241.193">
			<stop  offset="0" style="stop-color:#95C11F"/>
			<stop  offset="0.4989" style="stop-color:#36A9E1"/>
			<stop  offset="1" style="stop-color:#662483"/>
		</linearGradient>
		<path class="st1" d="M614.6,260.2h-75.3c-10.5,0-19-8.5-19-19s8.5-19,19-19h75.3c10.5,0,19,8.5,19,19S625.1,260.2,614.6,260.2z
			 M539.4,234.3c-3.8,0-6.9,3.1-6.9,6.9s3.1,6.9,6.9,6.9h75.3c3.8,0,6.9-3.1,6.9-6.9s-3.1-6.9-6.9-6.9H539.4z"/>
	</g>
	<g>
		<linearGradient id="SVGID_3_" gradientUnits="userSpaceOnUse" x1="520.3279" y1="354.086" x2="633.6802" y2="354.086">
			<stop  offset="0" style="stop-color:#95C11F"/>
			<stop  offset="0.4989" style="stop-color:#36A9E1"/>
			<stop  offset="1" style="stop-color:#662483"/>
		</linearGradient>
		<path class="st2" d="M614.6,373.1h-75.3c-10.5,0-19-8.5-19-19s8.5-19,19-19h75.3c10.5,0,19,8.5,19,19S625.1,373.1,614.6,373.1z
			 M539.4,347.2c-3.8,0-6.9,3.1-6.9,6.9c0,3.8,3.1,6.9,6.9,6.9h75.3c3.8,0,6.9-3.1,6.9-6.9c0-3.8-3.1-6.9-6.9-6.9H539.4z"/>
	</g>
	<g>
		<linearGradient id="SVGID_4_" gradientUnits="userSpaceOnUse" x1="520.3279" y1="297.639" x2="622.6492" y2="297.639">
			<stop  offset="0" style="stop-color:#95C11F"/>
			<stop  offset="0.4989" style="stop-color:#36A9E1"/>
			<stop  offset="1" style="stop-color:#662483"/>
		</linearGradient>
		<path class="st3" d="M603.6,316.7h-64.2c-10.5,0-19-8.5-19-19s8.5-19,19-19h64.2c10.5,0,19,8.5,19,19S614.1,316.7,603.6,316.7z
			 M539.4,290.7c-3.8,0-6.9,3.1-6.9,6.9c0,3.8,3.1,6.9,6.9,6.9h64.2c3.8,0,6.9-3.1,6.9-6.9c0-3.8-3.1-6.9-6.9-6.9H539.4z"/>
	</g>
</g>
<g>
	<g>
		<linearGradient id="SVGID_5_" gradientUnits="userSpaceOnUse" x1="366.8873" y1="297.639" x2="404.9763" y2="297.639">
			<stop  offset="0" style="stop-color:#95C11F"/>
			<stop  offset="0.4989" style="stop-color:#36A9E1"/>
			<stop  offset="1" style="stop-color:#662483"/>
		</linearGradient>
		<path class="st4" d="M385.9,373.1c-10.5,0-19-8.5-19-19V241.2c0-10.5,8.5-19,19-19s19,8.5,19,19v112.9
			C405,364.6,396.4,373.1,385.9,373.1z M385.9,234.3c-3.8,0-6.9,3.1-6.9,6.9v112.9c0,3.8,3.1,6.9,6.9,6.9c3.8,0,6.9-3.1,6.9-6.9
			V241.2C392.8,237.4,389.7,234.3,385.9,234.3z"/>
	</g>
	<g>
		<linearGradient id="SVGID_6_" gradientUnits="userSpaceOnUse" x1="366.8873" y1="241.193" x2="456.1054" y2="241.193">
			<stop  offset="0" style="stop-color:#95C11F"/>
			<stop  offset="0.4989" style="stop-color:#36A9E1"/>
			<stop  offset="1" style="stop-color:#662483"/>
		</linearGradient>
		<path class="st5" d="M437.1,260.2h-51.1c-10.5,0-19-8.5-19-19s8.5-19,19-19h51.1c10.5,0,19,8.5,19,19S447.6,260.2,437.1,260.2z
			 M385.9,234.3c-3.8,0-6.9,3.1-6.9,6.9s3.1,6.9,6.9,6.9h51.1c3.8,0,6.9-3.1,6.9-6.9s-3.1-6.9-6.9-6.9H385.9z"/>
	</g>
	<g>
		<linearGradient id="SVGID_7_" gradientUnits="userSpaceOnUse" x1="366.8873" y1="354.086" x2="456.0817" y2="354.086">
			<stop  offset="0" style="stop-color:#95C11F"/>
			<stop  offset="0.4989" style="stop-color:#36A9E1"/>
			<stop  offset="1" style="stop-color:#662483"/>
		</linearGradient>
		<path class="st6" d="M437,373.1h-51.1c-10.5,0-19-8.5-19-19s8.5-19,19-19H437c10.5,0,19,8.5,19,19S447.5,373.1,437,373.1z
			 M385.9,347.2c-3.8,0-6.9,3.1-6.9,6.9c0,3.8,3.1,6.9,6.9,6.9H437c3.8,0,6.9-3.1,6.9-6.9c0-3.8-3.1-6.9-6.9-6.9H385.9z"/>
	</g>
	<g>
		<g>
			<linearGradient id="SVGID_8_" gradientUnits="userSpaceOnUse" x1="417.5324" y1="269.4155" x2="508.1748" y2="269.4155">
				<stop  offset="0" style="stop-color:#95C11F"/>
				<stop  offset="0.4989" style="stop-color:#36A9E1"/>
				<stop  offset="1" style="stop-color:#662483"/>
			</linearGradient>
			<path class="st7" d="M489.1,316.7c-10.5,0-19-8.5-19-19c0-21.7-14.1-37.4-33.5-37.4c-10.5,0-19-8.5-19-19s8.5-19,19-19
				c40.8,0,71.6,32.5,71.6,75.5C508.2,308.1,499.6,316.7,489.1,316.7z M436.6,234.3c-3.8,0-6.9,3.1-6.9,6.9s3.1,6.9,6.9,6.9
				c26.5,0,45.6,20.8,45.6,49.5c0,3.8,3.1,6.9,6.9,6.9c3.8,0,6.9-3.1,6.9-6.9C496,261.5,470.5,234.3,436.6,234.3z"/>
		</g>
		<g>
			<linearGradient id="SVGID_9_" gradientUnits="userSpaceOnUse" x1="417.5324" y1="325.8625" x2="508.1748" y2="325.8625">
				<stop  offset="0" style="stop-color:#95C11F"/>
				<stop  offset="0.4989" style="stop-color:#36A9E1"/>
				<stop  offset="1" style="stop-color:#662483"/>
			</linearGradient>
			<path class="st8" d="M436.6,373.1c-10.5,0-19-8.5-19-19s8.5-19,19-19c19.4,0,33.5-15.7,33.5-37.4c0-10.5,8.5-19,19-19
				c10.5,0,19,8.5,19,19C508.2,340.7,477.4,373.1,436.6,373.1z M489.1,290.7c-3.8,0-6.9,3.1-6.9,6.9c0,28.7-19.2,49.5-45.6,49.5
				c-3.8,0-6.9,3.1-6.9,6.9c0,3.8,3.1,6.9,6.9,6.9c33.9,0,59.5-27.2,59.5-63.4C496,293.8,492.9,290.7,489.1,290.7z"/>
		</g>
	</g>
</g>
<g>
	<g>
		<linearGradient id="SVGID_10_" gradientUnits="userSpaceOnUse" x1="192.3804" y1="267.3679" x2="291.0116" y2="267.3679">
			<stop  offset="0" style="stop-color:#95C11F"/>
			<stop  offset="0.4989" style="stop-color:#36A9E1"/>
			<stop  offset="1" style="stop-color:#662483"/>
		</linearGradient>
		<path class="st9" d="M211.4,316.7c-10.5,0-19-8.5-19-19c0-43.9,35.7-79.6,79.6-79.6c10.5,0,19,8.5,19,19s-8.5,19-19,19
			c-22.9,0-41.5,18.6-41.5,41.5C230.5,308.1,221.9,316.7,211.4,316.7z M272,230.2c-37.2,0-67.5,30.3-67.5,67.4
			c0,3.8,3.1,6.9,6.9,6.9s6.9-3.1,6.9-6.9c0-29.6,24.1-53.6,53.6-53.6c3.8,0,6.9-3.1,6.9-6.9S275.8,230.2,272,230.2z"/>
	</g>
	<g>
		<linearGradient id="SVGID_11_" gradientUnits="userSpaceOnUse" x1="192.3804" y1="327.9111" x2="291.0116" y2="327.9111">
			<stop  offset="0" style="stop-color:#95C11F"/>
			<stop  offset="0.4989" style="stop-color:#36A9E1"/>
			<stop  offset="1" style="stop-color:#662483"/>
		</linearGradient>
		<path class="st10" d="M272,377.2c-43.9,0-79.6-35.7-79.6-79.6c0-10.5,8.5-19,19-19s19,8.5,19,19c0,22.9,18.6,41.5,41.5,41.5
			c10.5,0,19,8.5,19,19S282.5,377.2,272,377.2z M211.4,290.7c-3.8,0-6.9,3.1-6.9,6.9c0,37.2,30.3,67.5,67.5,67.5
			c3.8,0,6.9-3.1,6.9-6.9c0-3.8-3.1-6.9-6.9-6.9c-29.6,0-53.6-24.1-53.6-53.6C218.3,293.8,215.2,290.7,211.4,290.7z"/>
	</g>
	<g>
		<linearGradient id="SVGID_12_" gradientUnits="userSpaceOnUse" x1="252.9226" y1="327.9111" x2="351.5557" y2="327.9111">
			<stop  offset="0" style="stop-color:#95C11F"/>
			<stop  offset="0.4989" style="stop-color:#36A9E1"/>
			<stop  offset="1" style="stop-color:#662483"/>
		</linearGradient>
		<path class="st11" d="M272,377.2c-10.5,0-19-8.5-19-19s8.5-19,19-19c22.9,0,41.5-18.6,41.5-41.5c0-10.5,8.5-19,19-19
			c10.5,0,19,8.5,19,19C351.6,341.5,315.9,377.2,272,377.2z M332.5,290.7c-3.8,0-6.9,3.1-6.9,6.9c0,29.6-24.1,53.6-53.6,53.6
			c-3.8,0-6.9,3.1-6.9,6.9c0,3.8,3.1,6.9,6.9,6.9c37.2,0,67.5-30.3,67.5-67.5C339.4,293.8,336.3,290.7,332.5,290.7z"/>
	</g>
	<g>
		<linearGradient id="SVGID_13_" gradientUnits="userSpaceOnUse" x1="252.9226" y1="267.3679" x2="351.5557" y2="267.3679">
			<stop  offset="0" style="stop-color:#95C11F"/>
			<stop  offset="0.4989" style="stop-color:#36A9E1"/>
			<stop  offset="1" style="stop-color:#662483"/>
		</linearGradient>
		<path class="st12" d="M332.5,316.7c-10.5,0-19-8.5-19-19c0-22.9-18.6-41.5-41.5-41.5c-10.5,0-19-8.5-19-19s8.5-19,19-19
			c43.9,0,79.6,35.7,79.6,79.6C351.6,308.1,343,316.7,332.5,316.7z M272,230.2c-3.8,0-6.9,3.1-6.9,6.9s3.1,6.9,6.9,6.9
			c29.6,0,53.6,24.1,53.6,53.6c0,3.8,3.1,6.9,6.9,6.9c3.8,0,6.9-3.1,6.9-6.9C339.4,260.4,309.2,230.2,272,230.2z"/>
	</g>
</g>
<g>
	<g>
		<linearGradient id="SVGID_14_" gradientUnits="userSpaceOnUse" x1="644.6219" y1="297.6438" x2="775.2816" y2="297.6438">
			<stop  offset="0" style="stop-color:#95C11F"/>
			<stop  offset="0.4989" style="stop-color:#36A9E1"/>
			<stop  offset="1" style="stop-color:#662483"/>
		</linearGradient>
		<path class="st13" d="M756.3,373.1c-5.7,0-11.1-2.5-14.7-7l-92.6-112.9c-6.7-8.1-5.5-20.1,2.7-26.8c8.1-6.7,20.1-5.5,26.8,2.6
			L771,342c6.7,8.1,5.5,20.1-2.6,26.8C764.9,371.6,760.6,373.1,756.3,373.1z M663.7,234.3c-1.5,0-3.1,0.5-4.4,1.6
			c-2.9,2.4-3.4,6.8-1,9.7l92.6,112.9c1.3,1.6,3.3,2.5,5.3,2.5c1.1,0,2.8-0.3,4.4-1.6c2.9-2.4,3.4-6.8,1-9.7L669,236.8
			C667.6,235.1,665.7,234.3,663.7,234.3z"/>
	</g>
	<g>
		<linearGradient id="SVGID_15_" gradientUnits="userSpaceOnUse" x1="644.6219" y1="297.6421" x2="775.2842" y2="297.6421">
			<stop  offset="0" style="stop-color:#95C11F"/>
			<stop  offset="0.4989" style="stop-color:#36A9E1"/>
			<stop  offset="1" style="stop-color:#662483"/>
		</linearGradient>
		<path class="st14" d="M663.7,373.1c-4.4,0-8.7-1.5-12.1-4.3c-8.1-6.7-9.3-18.7-2.7-26.8l92.6-112.9c6.7-8.1,18.7-9.3,26.8-2.7
			c8.1,6.7,9.3,18.7,2.7,26.8l-92.6,112.9C674.8,370.6,669.4,373.1,663.7,373.1z M756.3,234.3c-2,0-4,0.9-5.3,2.5l-92.6,112.9
			c-2.4,2.9-2,7.3,1,9.7c1.6,1.3,3.2,1.6,4.4,1.6c2.1,0,4-0.9,5.3-2.5l92.6-112.9c2.4-2.9,2-7.3-1-9.7
			C759.3,234.8,757.8,234.3,756.3,234.3z"/>
	</g>
</g>
<g>
	<g>
		<g>
			<linearGradient id="SVGID_16_" gradientUnits="userSpaceOnUse" x1="63.171" y1="297.639" x2="101.26" y2="297.639">
				<stop  offset="0" style="stop-color:#95C11F"/>
				<stop  offset="0.4989" style="stop-color:#36A9E1"/>
				<stop  offset="1" style="stop-color:#662483"/>
			</linearGradient>
			<path class="st15" d="M82.2,373.1c-10.5,0-19-8.5-19-19V241.2c0-10.5,8.5-19,19-19s19,8.5,19,19v112.9
				C101.3,364.6,92.7,373.1,82.2,373.1z M82.2,234.3c-3.8,0-6.9,3.1-6.9,6.9v112.9c0,3.8,3.1,6.9,6.9,6.9s6.9-3.1,6.9-6.9V241.2
				C89.1,237.4,86,234.3,82.2,234.3z"/>
		</g>
	</g>
	<g>
		<linearGradient id="SVGID_17_" gradientUnits="userSpaceOnUse" x1="63.1698" y1="282.4874" x2="180.8883" y2="282.4874">
			<stop  offset="0" style="stop-color:#95C11F"/>
			<stop  offset="0.4989" style="stop-color:#36A9E1"/>
			<stop  offset="1" style="stop-color:#662483"/>
		</linearGradient>
		<path class="st16" d="M82.2,342.8c-5,0-9.7-1.9-13.2-5.3c-3.7-3.5-5.7-8.3-5.8-13.4c-0.1-5.1,1.8-9.9,5.3-13.6l79.6-82.6
			c3.5-3.7,8.3-5.7,13.4-5.8c5.1-0.1,9.9,1.8,13.6,5.3c7.6,7.3,7.8,19.4,0.5,26.9L95.9,337C92.3,340.8,87.4,342.8,82.2,342.8z
			 M161.9,234.3c0,0-0.1,0-0.1,0c-1.8,0-3.6,0.8-4.8,2.1L77.2,319c-1.3,1.3-2,3.1-1.9,4.9c0,1.8,0.8,3.6,2.1,4.8
			c2.7,2.6,7.2,2.5,9.8-0.2l79.6-82.6c1.3-1.3,2-3.1,1.9-4.9s-0.8-3.6-2.1-4.8C165.4,235,163.7,234.3,161.9,234.3z"/>
	</g>
	<g>
		<linearGradient id="SVGID_18_" gradientUnits="userSpaceOnUse" x1="97.0253" y1="321.3893" x2="188.7654" y2="321.3893">
			<stop  offset="0" style="stop-color:#95C11F"/>
			<stop  offset="0.4989" style="stop-color:#36A9E1"/>
			<stop  offset="1" style="stop-color:#662483"/>
		</linearGradient>
		<path class="st17" d="M169.7,373.1c-5.7,0-11.1-2.5-14.7-7l-53.7-65.4c-3.2-3.9-4.7-8.9-4.2-14c0.5-5.1,2.9-9.6,6.9-12.9
			c3.9-3.2,8.9-4.7,13.9-4.2c5.1,0.5,9.6,2.9,12.9,6.9l53.7,65.4c6.7,8.1,5.5,20.1-2.6,26.8C178.4,371.6,174.1,373.1,169.7,373.1z
			 M116.1,281.8c-1.6,0-3.1,0.5-4.4,1.6c-2.9,2.4-3.4,6.8-1,9.7l53.7,65.4c1.3,1.6,3.3,2.5,5.3,2.5c1.1,0,2.8-0.3,4.4-1.6
			c2.9-2.4,3.4-6.8,1-9.7l-53.7-65.4c-1.2-1.4-2.8-2.3-4.7-2.5C116.5,281.8,116.3,281.8,116.1,281.8z"/>
	</g>
</g>
</svg>
